<svg width="24" height="24" viewBox="0 0 24 24" fill="none" xmlns="http://www.w3.org/2000/svg">
<path fill-rule="evenodd" clip-rule="evenodd" d="M6.0384 4H17.6029C18.1502 4 18.6179 4 18.992 4.04677C19.3883 4.09682 19.7715 4.20923 20.0866 4.50462C20.4066 4.80576 20.5338 5.18074 20.5896 5.57049C20.6413 5.92905 20.6413 6.3746 20.6413 6.88333V7.52005C20.6413 7.92129 20.6413 8.26673 20.6118 8.55638C20.5789 8.86818 20.5092 9.15946 20.3402 9.43926C20.172 9.71742 19.9463 9.91927 19.6854 10.0998C19.44 10.2705 19.1274 10.4469 18.7582 10.6545L16.3442 12.0132C15.7944 12.3226 15.6033 12.4342 15.4753 12.5449C15.1823 12.7993 15.0141 13.0824 14.9354 13.436C14.9017 13.5878 14.8976 13.7782 14.8976 14.3575V16.5992C14.8976 17.3385 14.8976 17.9662 14.8213 18.4495C14.7409 18.9623 14.553 19.4546 14.0607 19.7623C13.579 20.0634 13.0498 20.0355 12.5345 19.9133C12.0381 19.7959 11.4268 19.5563 10.6932 19.27L10.6227 19.2421C10.2781 19.1075 9.97775 18.9902 9.73979 18.8671C9.48379 18.735 9.24584 18.5709 9.0645 18.3149C8.87988 18.0556 8.80686 17.7783 8.77322 17.4944C8.74368 17.2359 8.74368 16.9257 8.74368 16.5795V14.3575C8.74368 13.7782 8.7404 13.5878 8.70593 13.436C8.63144 13.0867 8.4412 12.7727 8.16603 12.5449C8.03802 12.4342 7.84602 12.3226 7.29709 12.0132L4.88311 10.6545C4.51387 10.4469 4.20125 10.2705 3.95591 10.0998C3.69498 9.91927 3.46934 9.71742 3.30113 9.43926C3.1321 9.15946 3.06236 8.86736 3.03036 8.55638C3 8.26755 3 7.92129 3 7.52005V6.88333C3 6.3746 3 5.92905 3.05169 5.57049C3.10749 5.18074 3.23467 4.80576 3.55468 4.50462C3.86976 4.20923 4.25212 4.09682 4.64926 4.04677C5.02342 4 5.49111 4 6.0384 4ZM4.80351 5.26853C4.52946 5.30299 4.44248 5.35879 4.39735 5.40228C4.35633 5.44002 4.30381 5.50648 4.26935 5.74526C4.23243 6.00618 4.23079 6.36229 4.23079 6.92517V7.49134C4.23079 7.9295 4.23079 8.21176 4.25376 8.43002C4.2751 8.63269 4.3112 8.73033 4.35551 8.80336C4.40064 8.87802 4.47612 8.96254 4.65746 9.0889C4.84946 9.22182 5.11121 9.37034 5.51081 9.59516L7.901 10.9408L7.96664 10.9777C8.42613 11.2362 8.73793 11.4118 8.9726 11.6153C9.44721 12.0157 9.77609 12.5618 9.908 13.1685C9.97446 13.4697 9.97446 13.8086 9.97446 14.2845V16.5483C9.97446 16.9356 9.97529 17.1735 9.99662 17.3524C10.0147 17.5149 10.045 17.5698 10.0672 17.6018C10.0918 17.6363 10.141 17.6896 10.3043 17.7742C10.4783 17.8636 10.7187 17.958 11.0978 18.1065C11.8863 18.415 12.4172 18.6209 12.8184 18.7161C13.2114 18.8097 13.3411 18.7612 13.4075 18.7194C13.4633 18.6841 13.5495 18.6127 13.6061 18.2574C13.6652 17.8825 13.6668 17.3524 13.6668 16.5475V14.2845C13.6668 13.8086 13.6668 13.4697 13.7341 13.1685C13.8658 12.5619 14.1944 12.0158 14.6687 11.6153C14.9034 11.4118 15.216 11.2354 15.6738 10.9777L15.7403 10.9408L18.1305 9.59516C18.5301 9.37034 18.7918 9.22182 18.9838 9.0889C19.1652 8.96254 19.2407 8.87802 19.2858 8.80336C19.3301 8.73033 19.3662 8.63269 19.3867 8.43002C19.4097 8.21176 19.4105 7.9295 19.4105 7.49051V6.92435C19.4105 6.36229 19.4089 6.00536 19.3719 5.74526C19.3375 5.50648 19.2841 5.44002 19.2448 5.40228C19.1988 5.35961 19.1118 5.30299 18.8378 5.26853C18.5506 5.23161 18.1608 5.23079 17.5643 5.23079H6.07697C5.48045 5.23079 5.09152 5.23161 4.80351 5.26853Z" fill="#222529"/>
</svg>
