<svg width="24" height="24" viewBox="0 0 24 24" fill="none" xmlns="http://www.w3.org/2000/svg">
<path d="M12.5 22C12.5 22 20 14.8925 20 9.5C20 7.51088 19.2098 5.60322 17.8033 4.1967C16.3968 2.79018 14.4891 2 12.5 2C10.5109 2 8.60322 2.79018 7.1967 4.1967C5.79018 5.60322 5 7.51088 5 9.5C5 14.8925 12.5 22 12.5 22ZM12.5 13.25C11.5054 13.25 10.5516 12.8549 9.84835 12.1517C9.14509 11.4484 8.75 10.4946 8.75 9.5C8.75 8.50544 9.14509 7.55161 9.84835 6.84835C10.5516 6.14509 11.5054 5.75 12.5 5.75C13.4946 5.75 14.4484 6.14509 15.1517 6.84835C15.8549 7.55161 16.25 8.50544 16.25 9.5C16.25 10.4946 15.8549 11.4484 15.1517 12.1517C14.4484 12.8549 13.4946 13.25 12.5 13.25Z" fill="black"/>
</svg>
