<svg width="109" height="59" viewBox="0 0 109 59" fill="none" xmlns="http://www.w3.org/2000/svg">
<path d="M1.024 27.76L15.68 9.84H1.312V7.28H19.04V9.52L4.64 27.44H19.04V30H1.024V27.76ZM36.9555 30H34.1395V20.656C34.1395 18.9493 33.8302 17.6693 33.2115 16.816C32.6142 15.9627 31.7502 15.536 30.6195 15.536C29.8942 15.536 29.1582 15.728 28.4115 16.112C27.6862 16.496 27.0462 17.0187 26.4915 17.68C25.9368 18.32 25.5315 19.0667 25.2755 19.92V30H22.4595V6.64H25.2755V16.88C25.9368 15.6853 26.8328 14.7467 27.9635 14.064C29.1155 13.36 30.3528 13.008 31.6755 13.008C32.6782 13.008 33.5102 13.1893 34.1715 13.552C34.8542 13.8933 35.3982 14.384 35.8035 15.024C36.2088 15.664 36.4968 16.4107 36.6675 17.264C36.8595 18.096 36.9555 19.0133 36.9555 20.016V30ZM48.7265 30.32C47.4678 30.32 46.3158 30.096 45.2705 29.648C44.2465 29.1787 43.3505 28.5493 42.5825 27.76C41.8358 26.9493 41.2492 26.0213 40.8225 24.976C40.4172 23.9307 40.2145 22.8213 40.2145 21.648C40.2145 20.0693 40.5772 18.6293 41.3025 17.328C42.0278 16.0267 43.0305 14.9813 44.3105 14.192C45.6118 13.4027 47.0945 13.008 48.7585 13.008C50.4438 13.008 51.9052 13.4133 53.1425 14.224C54.4012 15.0133 55.3718 16.0587 56.0545 17.36C56.7585 18.64 57.1105 20.0267 57.1105 21.52C57.1105 21.7333 57.0998 21.9467 57.0785 22.16C57.0785 22.352 57.0678 22.5013 57.0465 22.608H43.1905C43.2758 23.696 43.5745 24.6667 44.0865 25.52C44.6198 26.352 45.3025 27.0133 46.1345 27.504C46.9665 27.9733 47.8625 28.208 48.8225 28.208C49.8465 28.208 50.8065 27.952 51.7025 27.44C52.6198 26.928 53.2492 26.256 53.5905 25.424L56.0225 26.096C55.6598 26.9067 55.1158 27.632 54.3905 28.272C53.6865 28.912 52.8438 29.4133 51.8625 29.776C50.9025 30.1387 49.8572 30.32 48.7265 30.32ZM43.0945 20.656H54.4865C54.4012 19.568 54.0918 18.608 53.5585 17.776C53.0252 16.944 52.3425 16.2933 51.5105 15.824C50.6785 15.3547 49.7612 15.12 48.7585 15.12C47.7772 15.12 46.8705 15.3547 46.0385 15.824C45.2065 16.2933 44.5238 16.944 43.9905 17.776C43.4785 18.608 43.1798 19.568 43.0945 20.656ZM60.2408 30V13.296H63.0568V30H60.2408ZM60.2408 10.16V6.64H63.0568V10.16H60.2408ZM67.6798 6.64H70.4958V25.68C70.4958 26.5973 70.6238 27.1627 70.8798 27.376C71.1358 27.5893 71.4451 27.696 71.8078 27.696C72.2558 27.696 72.6824 27.6533 73.0878 27.568C73.4931 27.4613 73.8344 27.3547 74.1118 27.248L74.5598 29.552C74.0904 29.744 73.5358 29.904 72.8958 30.032C72.2558 30.16 71.6904 30.224 71.1998 30.224C70.1118 30.224 69.2478 29.9147 68.6078 29.296C67.9891 28.6773 67.6798 27.8133 67.6798 26.704V6.64ZM76.9463 34.544C77.2236 34.5653 77.5009 34.5867 77.7783 34.608C78.0556 34.6507 78.2689 34.672 78.4183 34.672C78.7596 34.672 79.0583 34.5547 79.3143 34.32C79.5703 34.0853 79.8476 33.6267 80.1463 32.944C80.4663 32.2827 80.8716 31.3013 81.3623 30L74.2903 13.296H77.2663L82.8983 27.152L87.9863 13.296H90.7703L82.6423 34.384C82.4502 34.8747 82.1623 35.3333 81.7783 35.76C81.4156 36.208 80.9463 36.56 80.3703 36.816C79.7943 37.072 79.1009 37.2 78.2903 37.2C78.0983 37.2 77.8956 37.1893 77.6823 37.168C77.4903 37.1467 77.2449 37.104 76.9463 37.04V34.544ZM105.392 30L99.5998 21.872L96.4318 24.848V30H93.6158V6.64H96.4318V21.904L105.072 13.328H108.112L101.456 20.24L108.432 30H105.392Z" fill="#222529"/>
<path d="M10.052 53V44.908L6.454 51.194H5.838L2.226 44.908V53H1.246V43.06H2.254L6.132 49.864L10.038 43.06H11.032V53H10.052ZM13.2573 49.99V45.706H14.2093V49.822C14.2093 50.6527 14.3493 51.2733 14.6293 51.684C14.9187 52.0947 15.3433 52.3 15.9033 52.3C16.2767 52.3 16.636 52.2207 16.9813 52.062C17.336 51.894 17.6487 51.6607 17.9193 51.362C18.19 51.054 18.3953 50.6993 18.5353 50.298V45.706H19.4873V51.852C19.4873 51.9827 19.5153 52.0807 19.5713 52.146C19.6273 52.202 19.7113 52.2347 19.8233 52.244V53C19.7113 53.0093 19.6227 53.014 19.5573 53.014C19.492 53.0233 19.4313 53.028 19.3753 53.028C19.1887 53.0093 19.0253 52.9347 18.8853 52.804C18.7547 52.6733 18.6847 52.5147 18.6753 52.328L18.6473 51.348C18.33 51.908 17.896 52.3467 17.3453 52.664C16.804 52.9813 16.216 53.14 15.5813 53.14C14.816 53.14 14.2373 52.874 13.8453 52.342C13.4533 51.81 13.2573 51.026 13.2573 49.99ZM21.6818 42.78H22.6338V51.348C22.6338 51.712 22.6992 51.95 22.8298 52.062C22.9605 52.174 23.1192 52.23 23.3058 52.23C23.4738 52.23 23.6418 52.2113 23.8098 52.174C23.9778 52.1367 24.1225 52.0993 24.2438 52.062L24.4118 52.832C24.2345 52.9067 24.0152 52.9673 23.7538 53.014C23.5018 53.0607 23.2825 53.084 23.0958 53.084C22.6665 53.084 22.3212 52.958 22.0598 52.706C21.8078 52.454 21.6818 52.1087 21.6818 51.67V42.78ZM28.9543 52.65C28.8796 52.678 28.763 52.7293 28.6043 52.804C28.4456 52.8787 28.2543 52.944 28.0303 53C27.8063 53.056 27.5636 53.084 27.3023 53.084C27.0316 53.084 26.775 53.0327 26.5323 52.93C26.299 52.8273 26.1123 52.6733 25.9723 52.468C25.8323 52.2533 25.7623 51.992 25.7623 51.684V46.462H24.7543V45.706H25.7623V43.242H26.7143V45.706H28.3943V46.462H26.7143V51.418C26.733 51.6793 26.8263 51.8753 26.9943 52.006C27.1716 52.1367 27.3723 52.202 27.5963 52.202C27.8576 52.202 28.0956 52.16 28.3103 52.076C28.525 51.9827 28.6556 51.9173 28.7023 51.88L28.9543 52.65ZM30.1438 53V45.706H31.0958V53H30.1438ZM30.1438 44.18V42.78H31.0958V44.18H30.1438ZM36.7626 53.14C36.1932 53.14 35.6659 52.9953 35.1806 52.706C34.6952 52.4073 34.3172 52.034 34.0466 51.586V53H33.1926V42.78H34.1446V47.232C34.4712 46.7373 34.8632 46.3407 35.3206 46.042C35.7779 45.734 36.3099 45.58 36.9166 45.58C37.4299 45.58 37.8872 45.6873 38.2886 45.902C38.6992 46.1167 39.0492 46.406 39.3386 46.77C39.6279 47.1247 39.8472 47.5307 39.9966 47.988C40.1459 48.436 40.2206 48.898 40.2206 49.374C40.2206 49.8873 40.1319 50.368 39.9546 50.816C39.7866 51.264 39.5439 51.6653 39.2266 52.02C38.9092 52.3653 38.5406 52.6407 38.1206 52.846C37.7099 53.042 37.2572 53.14 36.7626 53.14ZM36.5386 52.3C36.9306 52.3 37.2946 52.2207 37.6306 52.062C37.9666 51.9033 38.2559 51.684 38.4986 51.404C38.7412 51.124 38.9279 50.8113 39.0586 50.466C39.1892 50.1113 39.2546 49.7473 39.2546 49.374C39.2546 48.8607 39.1426 48.38 38.9186 47.932C38.7039 47.4747 38.4006 47.1107 38.0086 46.84C37.6259 46.56 37.1732 46.42 36.6506 46.42C36.2772 46.42 35.9272 46.504 35.6006 46.672C35.2832 46.84 34.9986 47.064 34.7466 47.344C34.5039 47.6147 34.3032 47.9133 34.1446 48.24V50.508C34.1819 50.76 34.2799 50.998 34.4386 51.222C34.5972 51.4367 34.7932 51.6233 35.0266 51.782C35.2692 51.9407 35.5212 52.0667 35.7826 52.16C36.0439 52.2533 36.2959 52.3 36.5386 52.3ZM45.4732 46.546C44.8385 46.5647 44.2785 46.742 43.7932 47.078C43.3172 47.414 42.9812 47.876 42.7852 48.464V53H41.8332V45.706H42.7292V47.456C42.9812 46.9427 43.3125 46.5273 43.7232 46.21C44.1432 45.8927 44.5865 45.7153 45.0532 45.678C45.1465 45.6687 45.2259 45.664 45.2912 45.664C45.3659 45.664 45.4265 45.6687 45.4732 45.678V46.546ZM46.1261 50.9C46.1261 50.4427 46.2567 50.0507 46.5181 49.724C46.7794 49.388 47.1387 49.1313 47.5961 48.954C48.0627 48.7673 48.5994 48.674 49.2061 48.674C49.5607 48.674 49.9294 48.702 50.3121 48.758C50.6947 48.814 51.0354 48.898 51.3341 49.01V48.394C51.3341 47.778 51.1521 47.288 50.7881 46.924C50.4241 46.56 49.9201 46.378 49.2761 46.378C48.8841 46.378 48.4967 46.4527 48.1141 46.602C47.7407 46.742 47.3487 46.952 46.9381 47.232L46.5741 46.56C47.0501 46.2333 47.5167 45.9907 47.9741 45.832C48.4314 45.664 48.8981 45.58 49.3741 45.58C50.2701 45.58 50.9794 45.8367 51.5021 46.35C52.0247 46.8633 52.2861 47.5727 52.2861 48.478V51.852C52.2861 51.9827 52.3141 52.0807 52.3701 52.146C52.4261 52.202 52.5147 52.2347 52.6361 52.244V53C52.5334 53.0093 52.4447 53.0187 52.3701 53.028C52.2954 53.0373 52.2394 53.0373 52.2021 53.028C51.9687 53.0187 51.7914 52.944 51.6701 52.804C51.5487 52.664 51.4834 52.5147 51.4741 52.356L51.4601 51.824C51.1334 52.244 50.7087 52.5707 50.1861 52.804C49.6634 53.028 49.1314 53.14 48.5901 53.14C48.1234 53.14 47.6987 53.042 47.3161 52.846C46.9427 52.6407 46.6487 52.37 46.4341 52.034C46.2287 51.6887 46.1261 51.3107 46.1261 50.9ZM51.0121 51.46C51.1147 51.3293 51.1941 51.2033 51.2501 51.082C51.3061 50.9607 51.3341 50.8533 51.3341 50.76V49.696C51.0167 49.5747 50.6854 49.4813 50.3401 49.416C50.0041 49.3507 49.6634 49.318 49.3181 49.318C48.6367 49.318 48.0861 49.4533 47.6661 49.724C47.2461 49.9947 47.0361 50.3633 47.0361 50.83C47.0361 51.1007 47.1061 51.3573 47.2461 51.6C47.3861 51.8333 47.5914 52.0293 47.8621 52.188C48.1327 52.3373 48.4501 52.412 48.8141 52.412C49.2714 52.412 49.6961 52.3233 50.0881 52.146C50.4894 51.9687 50.7974 51.74 51.0121 51.46ZM60.475 53H59.523V48.926C59.523 48.0673 59.397 47.442 59.145 47.05C58.893 46.6487 58.4963 46.448 57.955 46.448C57.5816 46.448 57.213 46.5413 56.849 46.728C56.485 46.9053 56.163 47.1527 55.883 47.47C55.6123 47.778 55.4163 48.1327 55.295 48.534V53H54.343V45.706H55.211V47.358C55.407 47.0033 55.6636 46.6953 55.981 46.434C56.2983 46.1633 56.6576 45.9533 57.059 45.804C57.4603 45.6547 57.8756 45.58 58.305 45.58C58.7063 45.58 59.047 45.6547 59.327 45.804C59.607 45.9533 59.831 46.168 59.999 46.448C60.167 46.7187 60.2883 47.05 60.363 47.442C60.4376 47.8247 60.475 48.254 60.475 48.73V53ZM62.0151 49.374C62.0151 48.6833 62.1551 48.0533 62.4351 47.484C62.7244 46.9053 63.1211 46.4433 63.6251 46.098C64.1291 45.7527 64.7031 45.58 65.3471 45.58C65.9537 45.58 66.4951 45.7433 66.9711 46.07C67.4564 46.3873 67.8344 46.7747 68.1051 47.232V42.78H69.0571V51.852C69.0571 51.9827 69.0851 52.0807 69.1411 52.146C69.1971 52.202 69.2811 52.2347 69.3931 52.244V53C69.2064 53.028 69.0617 53.0373 68.9591 53.028C68.7631 53.0187 68.5904 52.9393 68.4411 52.79C68.2917 52.6407 68.2171 52.4773 68.2171 52.3V51.586C67.9277 52.062 67.5357 52.44 67.0411 52.72C66.5464 53 66.0331 53.14 65.5011 53.14C64.9971 53.14 64.5304 53.0373 64.1011 52.832C63.6811 52.6267 63.3124 52.3467 62.9951 51.992C62.6871 51.6373 62.4444 51.236 62.2671 50.788C62.0991 50.3307 62.0151 49.8593 62.0151 49.374ZM68.1051 50.494V48.24C67.9837 47.904 67.7877 47.6007 67.5171 47.33C67.2464 47.05 66.9384 46.8307 66.5931 46.672C66.2571 46.504 65.9211 46.42 65.5851 46.42C65.1931 46.42 64.8384 46.504 64.5211 46.672C64.2037 46.8307 63.9284 47.05 63.6951 47.33C63.4711 47.61 63.2984 47.9273 63.1771 48.282C63.0557 48.6367 62.9951 49.0007 62.9951 49.374C62.9951 49.766 63.0604 50.1393 63.1911 50.494C63.3311 50.8487 63.5271 51.166 63.7791 51.446C64.0311 51.7167 64.3204 51.9267 64.6471 52.076C64.9737 52.2253 65.3284 52.3 65.7111 52.3C65.9537 52.3 66.2057 52.2533 66.4671 52.16C66.7284 52.0667 66.9757 51.9407 67.2091 51.782C67.4517 51.614 67.6524 51.418 67.8111 51.194C67.9697 50.97 68.0677 50.7367 68.1051 50.494ZM77.1764 53.14C76.5791 53.14 76.0238 53.042 75.5104 52.846C74.9971 52.65 74.5538 52.3513 74.1804 51.95L74.5724 51.278C74.9831 51.6607 75.3938 51.9407 75.8044 52.118C76.2244 52.286 76.6678 52.37 77.1344 52.37C77.7038 52.37 78.1658 52.258 78.5204 52.034C78.8751 51.8007 79.0524 51.4693 79.0524 51.04C79.0524 50.7507 78.9638 50.5313 78.7864 50.382C78.6184 50.2233 78.3711 50.0973 78.0444 50.004C77.7271 49.9013 77.3444 49.794 76.8964 49.682C76.3924 49.542 75.9678 49.3973 75.6224 49.248C75.2864 49.0893 75.0298 48.8933 74.8524 48.66C74.6844 48.4173 74.6004 48.1047 74.6004 47.722C74.6004 47.246 74.7171 46.854 74.9504 46.546C75.1931 46.2287 75.5198 45.9907 75.9304 45.832C76.3504 45.664 76.8171 45.58 77.3304 45.58C77.8904 45.58 78.3851 45.6687 78.8144 45.846C79.2438 46.0233 79.5938 46.2707 79.8644 46.588L79.4024 47.232C79.1411 46.9333 78.8284 46.714 78.4644 46.574C78.1098 46.4247 77.7131 46.35 77.2744 46.35C76.9758 46.35 76.6911 46.392 76.4204 46.476C76.1498 46.5507 75.9258 46.6813 75.7484 46.868C75.5804 47.0453 75.4964 47.2927 75.4964 47.61C75.4964 47.8713 75.5618 48.0767 75.6924 48.226C75.8231 48.366 76.0191 48.4873 76.2804 48.59C76.5418 48.6833 76.8638 48.786 77.2464 48.898C77.7971 49.0473 78.2778 49.2013 78.6884 49.36C79.0991 49.5093 79.4164 49.7053 79.6404 49.948C79.8644 50.1907 79.9764 50.5313 79.9764 50.97C79.9764 51.6513 79.7198 52.1833 79.2064 52.566C78.6931 52.9487 78.0164 53.14 77.1764 53.14ZM85.05 52.65C84.9753 52.678 84.8587 52.7293 84.7 52.804C84.5413 52.8787 84.35 52.944 84.126 53C83.902 53.056 83.6593 53.084 83.398 53.084C83.1273 53.084 82.8707 53.0327 82.628 52.93C82.3947 52.8273 82.208 52.6733 82.068 52.468C81.928 52.2533 81.858 51.992 81.858 51.684V46.462H80.85V45.706H81.858V43.242H82.81V45.706H84.49V46.462H82.81V51.418C82.8287 51.6793 82.922 51.8753 83.09 52.006C83.2673 52.1367 83.468 52.202 83.692 52.202C83.9533 52.202 84.1913 52.16 84.406 52.076C84.6207 51.9827 84.7513 51.9173 84.798 51.88L85.05 52.65ZM89.2244 53.14C88.7017 53.14 88.2164 53.042 87.7684 52.846C87.3297 52.6407 86.9471 52.3653 86.6204 52.02C86.3031 51.6653 86.0557 51.264 85.8784 50.816C85.7011 50.3587 85.6124 49.878 85.6124 49.374C85.6124 48.8513 85.7011 48.366 85.8784 47.918C86.0557 47.4607 86.3077 47.0593 86.6344 46.714C86.9611 46.3593 87.3437 46.084 87.7824 45.888C88.2304 45.6827 88.7157 45.58 89.2384 45.58C89.7611 45.58 90.2417 45.6827 90.6804 45.888C91.1191 46.084 91.5017 46.3593 91.8284 46.714C92.1551 47.0593 92.4071 47.4607 92.5844 47.918C92.7617 48.366 92.8504 48.8513 92.8504 49.374C92.8504 49.878 92.7617 50.3587 92.5844 50.816C92.4071 51.264 92.1551 51.6653 91.8284 52.02C91.5111 52.3653 91.1284 52.6407 90.6804 52.846C90.2417 53.042 89.7564 53.14 89.2244 53.14ZM86.5784 49.388C86.5784 49.9293 86.6951 50.424 86.9284 50.872C87.1711 51.3107 87.4931 51.6607 87.8944 51.922C88.2957 52.174 88.7391 52.3 89.2244 52.3C89.7097 52.3 90.1531 52.1693 90.5544 51.908C90.9557 51.6467 91.2777 51.292 91.5204 50.844C91.7631 50.3867 91.8844 49.892 91.8844 49.36C91.8844 48.8187 91.7631 48.324 91.5204 47.876C91.2777 47.428 90.9557 47.0733 90.5544 46.812C90.1531 46.5507 89.7097 46.42 89.2244 46.42C88.7391 46.42 88.2957 46.5553 87.8944 46.826C87.5024 47.0967 87.1851 47.456 86.9424 47.904C86.6997 48.3427 86.5784 48.8373 86.5784 49.388ZM98.0826 46.546C97.4479 46.5647 96.8879 46.742 96.4026 47.078C95.9266 47.414 95.5906 47.876 95.3946 48.464V53H94.4426V45.706H95.3386V47.456C95.5906 46.9427 95.9219 46.5273 96.3326 46.21C96.7526 45.8927 97.1959 45.7153 97.6626 45.678C97.7559 45.6687 97.8352 45.664 97.9006 45.664C97.9752 45.664 98.0359 45.6687 98.0826 45.678V46.546ZM102.268 53.14C101.746 53.14 101.26 53.042 100.812 52.846C100.364 52.6407 99.977 52.3653 99.6504 52.02C99.3237 51.6653 99.067 51.2593 98.8804 50.802C98.703 50.3447 98.6144 49.8547 98.6144 49.332C98.6144 48.6507 98.7684 48.0253 99.0764 47.456C99.3937 46.8867 99.8277 46.434 100.378 46.098C100.929 45.7527 101.554 45.58 102.254 45.58C102.973 45.58 103.598 45.7527 104.13 46.098C104.672 46.4433 105.096 46.9007 105.404 47.47C105.712 48.03 105.866 48.646 105.866 49.318C105.866 49.3927 105.866 49.4673 105.866 49.542C105.866 49.6073 105.862 49.6587 105.852 49.696H99.6084C99.655 50.2187 99.7997 50.6853 100.042 51.096C100.294 51.4973 100.616 51.8193 101.008 52.062C101.41 52.2953 101.844 52.412 102.31 52.412C102.786 52.412 103.234 52.2907 103.654 52.048C104.084 51.8053 104.382 51.488 104.55 51.096L105.376 51.32C105.227 51.6653 104.998 51.978 104.69 52.258C104.382 52.538 104.018 52.7573 103.598 52.916C103.188 53.0653 102.744 53.14 102.268 53.14ZM99.5804 49.01H104.97C104.933 48.478 104.788 48.0113 104.536 47.61C104.294 47.2087 103.972 46.896 103.57 46.672C103.178 46.4387 102.744 46.322 102.268 46.322C101.792 46.322 101.358 46.4387 100.966 46.672C100.574 46.896 100.252 47.2133 100 47.624C99.7577 48.0253 99.6177 48.4873 99.5804 49.01Z" fill="#222529"/>
</svg>
