<svg width="24" height="25" viewBox="0 0 24 25" fill="none" xmlns="http://www.w3.org/2000/svg">
<path d="M21.75 21.1895L16.086 15.5255C17.4471 13.8914 18.1258 11.7956 17.981 9.67389C17.8362 7.55219 16.8789 5.56801 15.3084 4.1341C13.7379 2.7002 11.6751 1.92697 9.54896 1.97528C7.42288 2.02359 5.39726 2.88971 3.8935 4.39347C2.38974 5.89723 1.52362 7.92284 1.47531 10.0489C1.427 12.175 2.20023 14.2379 3.63413 15.8084C5.06804 17.3789 7.05222 18.3361 9.17392 18.481C11.2956 18.6258 13.3915 17.9471 15.0255 16.586L20.6895 22.25L21.75 21.1895ZM3 10.25C3 8.91494 3.39588 7.6099 4.13758 6.49987C4.87928 5.38983 5.93348 4.52467 7.16688 4.01378C8.40028 3.50289 9.75748 3.36921 11.0669 3.62966C12.3762 3.89011 13.579 4.53299 14.523 5.47699C15.467 6.421 16.1098 7.62373 16.3703 8.9331C16.6307 10.2425 16.4971 11.5997 15.9862 12.8331C15.4753 14.0665 14.6101 15.1207 13.5001 15.8624C12.3901 16.6041 11.085 17 9.75 17C7.96039 16.998 6.24466 16.2862 4.97922 15.0207C3.71378 13.7553 3.00198 12.0396 3 10.25Z" fill="#4A5056"/>
</svg>
