<svg width="20" height="20" viewBox="0 0 20 20" fill="none" xmlns="http://www.w3.org/2000/svg">
<path fill-rule="evenodd" clip-rule="evenodd" d="M2.91668 4.16663C2.69566 4.16663 2.4837 4.25442 2.32742 4.4107C2.17114 4.56698 2.08334 4.77895 2.08334 4.99996C2.08334 5.22097 2.17114 5.43293 2.32742 5.58921C2.4837 5.7455 2.69566 5.83329 2.91668 5.83329H17.0833C17.3044 5.83329 17.5163 5.7455 17.6726 5.58921C17.8289 5.43293 17.9167 5.22097 17.9167 4.99996C17.9167 4.77895 17.8289 4.56698 17.6726 4.4107C17.5163 4.25442 17.3044 4.16663 17.0833 4.16663H2.91668ZM2.08334 9.99996C2.08334 9.77895 2.17114 9.56698 2.32742 9.4107C2.4837 9.25442 2.69566 9.16663 2.91668 9.16663H17.0833C17.3044 9.16663 17.5163 9.25442 17.6726 9.4107C17.8289 9.56698 17.9167 9.77895 17.9167 9.99996C17.9167 10.221 17.8289 10.4329 17.6726 10.5892C17.5163 10.7455 17.3044 10.8333 17.0833 10.8333H2.91668C2.69566 10.8333 2.4837 10.7455 2.32742 10.5892C2.17114 10.4329 2.08334 10.221 2.08334 9.99996ZM2.08334 15.0008C2.08334 14.7798 2.17114 14.5678 2.32742 14.4115C2.4837 14.2553 2.69566 14.1675 2.91668 14.1675H17.0833C17.3044 14.1675 17.5163 14.2553 17.6726 14.4115C17.8289 14.5678 17.9167 14.7798 17.9167 15.0008C17.9167 15.2218 17.8289 15.4338 17.6726 15.59C17.5163 15.7463 17.3044 15.8341 17.0833 15.8341H2.91668C2.69566 15.8341 2.4837 15.7463 2.32742 15.59C2.17114 15.4338 2.08334 15.2218 2.08334 15.0008Z" fill="#222529"/>
</svg>
