<svg width="18" height="18" viewBox="0 0 18 18" fill="none" xmlns="http://www.w3.org/2000/svg">
<path fill-rule="evenodd" clip-rule="evenodd" d="M16.272 5.79369C16.4367 5.96845 16.5654 6.17393 16.6506 6.39841C16.7359 6.6229 16.7761 6.86198 16.7689 7.102C16.7618 7.34202 16.7074 7.57829 16.6089 7.79729C16.5104 8.0163 16.3698 8.21375 16.1949 8.37838L7.84126 16.2506C7.49218 16.5795 7.02783 16.758 6.54832 16.7477C6.06882 16.7374 5.61257 16.539 5.27795 16.1954L1.75445 12.5758C1.41625 12.2283 1.22992 11.7607 1.23646 11.2759C1.243 10.7911 1.44187 10.3287 1.78932 9.99051C2.13677 9.65231 2.60434 9.46598 3.08917 9.47252C3.574 9.47906 4.03637 9.67793 4.37457 10.0254L6.64314 12.3558L13.6884 5.71719C14.0413 5.38468 14.5117 5.20594 14.9964 5.22028C15.481 5.23463 15.94 5.44089 16.2726 5.79369" fill="#222529"/>
</svg>
