<svg width="20" height="20" viewBox="0 0 20 20" fill="none" xmlns="http://www.w3.org/2000/svg">
<path fill-rule="evenodd" clip-rule="evenodd" d="M9.99999 11.1783L14.7142 15.8925C14.8713 16.0443 15.0818 16.1283 15.3003 16.1264C15.5188 16.1245 15.7278 16.0368 15.8823 15.8823C16.0369 15.7278 16.1245 15.5188 16.1264 15.3003C16.1283 15.0818 16.0443 14.8713 15.8925 14.7141L11.1783 9.99996L15.8925 5.28579C16.0443 5.12863 16.1283 4.91812 16.1264 4.69963C16.1245 4.48113 16.0369 4.27212 15.8823 4.11761C15.7278 3.96311 15.5188 3.87547 15.3003 3.87357C15.0818 3.87167 14.8713 3.95566 14.7142 4.10746L9.99999 8.82163L5.28583 4.10746C5.12795 3.95942 4.91867 3.8786 4.70227 3.88211C4.48587 3.88563 4.27932 3.9732 4.12634 4.12629C3.97335 4.27938 3.88593 4.48599 3.88257 4.7024C3.87921 4.9188 3.96017 5.12802 4.10833 5.28579L8.82166 9.99996L4.10749 14.7141C4.0279 14.791 3.96442 14.883 3.92074 14.9846C3.87707 15.0863 3.85408 15.1956 3.85312 15.3063C3.85216 15.4169 3.87324 15.5267 3.91514 15.6291C3.95704 15.7315 4.01892 15.8245 4.09717 15.9028C4.17541 15.981 4.26845 16.0429 4.37087 16.0848C4.47328 16.1267 4.58301 16.1478 4.69366 16.1468C4.80431 16.1459 4.91366 16.1229 5.01533 16.0792C5.117 16.0355 5.20896 15.9721 5.28583 15.8925L9.99999 11.1783Z" fill="#222529"/>
</svg>
