<svg width="20" height="20" viewBox="0 0 20 20" fill="none" xmlns="http://www.w3.org/2000/svg">
<path d="M10.725 12.5583L8.60834 10.4666L8.63334 10.4416C10.0456 8.87286 11.1004 7.01622 11.725 4.99996H14.1667V3.33329H8.33334V1.66663H6.66668V3.33329H0.833344V4.99996H10.1417C9.58334 6.59996 8.70001 8.12496 7.50001 9.45829C6.72501 8.59996 6.08334 7.65829 5.57501 6.66663H3.90834C4.51668 8.02496 5.35001 9.30829 6.39168 10.4666L2.15001 14.65L3.33334 15.8333L7.50001 11.6666L10.0917 14.2583L10.725 12.5583ZM15.4167 8.33329H13.75L10 18.3333H11.6667L12.6 15.8333H16.5583L17.5 18.3333H19.1667L15.4167 8.33329ZM13.2333 14.1666L14.5833 10.5583L15.9333 14.1666H13.2333Z" fill="black"/>
</svg>
