<svg width="32" height="32" viewBox="0 0 32 32" fill="none" xmlns="http://www.w3.org/2000/svg">
<path d="M16.3093 4.33337H13.024C11.94 4.33337 11.0653 4.33337 10.3573 4.39071C9.62932 4.45071 8.98932 4.57737 8.39732 4.87871C7.45588 5.35787 6.69039 6.12289 6.21066 7.06404C5.90932 7.65604 5.78399 8.29604 5.72399 9.02404C5.66666 9.73204 5.66666 10.6067 5.66666 11.6907V20.3094C5.66666 21.3934 5.66666 22.268 5.72399 22.976C5.78399 23.704 5.91066 24.344 6.21199 24.936C6.69115 25.8775 7.45618 26.643 8.39732 27.1227C8.98932 27.424 9.62932 27.5494 10.3573 27.6094C11.0653 27.6667 11.94 27.6667 13.024 27.6667H16.3093C17.3933 27.6667 18.268 27.6667 18.976 27.6094C19.704 27.5494 20.344 27.4227 20.936 27.1214C21.8774 26.6422 22.6429 25.8772 23.1227 24.936C23.424 24.344 23.5493 23.704 23.6093 22.976C23.6667 22.268 23.6667 21.3934 23.6667 20.3094V20C23.6667 19.7348 23.5613 19.4805 23.3738 19.2929C23.1862 19.1054 22.9319 19 22.6667 19C22.4014 19 22.1471 19.1054 21.9595 19.2929C21.772 19.4805 21.6667 19.7348 21.6667 20V20.2667C21.6667 21.4027 21.6667 22.196 21.616 22.8134C21.5653 23.4174 21.4733 23.7654 21.34 24.0294C21.052 24.5934 20.5933 25.052 20.0293 25.34C19.7653 25.4734 19.4173 25.5667 18.812 25.616C18.196 25.6654 17.404 25.6667 16.2667 25.6667H13.0667C11.9307 25.6667 11.1373 25.6667 10.52 25.616C9.91599 25.5654 9.56799 25.4734 9.30532 25.34C8.74054 25.0527 8.28126 24.5939 7.99332 24.0294C7.85999 23.7654 7.76666 23.4174 7.71732 22.812C7.66799 22.196 7.66666 21.4027 7.66666 20.2667V11.7334C7.66666 10.5974 7.66666 9.80404 7.71732 9.18671C7.76666 8.58271 7.85999 8.23471 7.99332 7.97204C8.28103 7.40706 8.74034 6.94775 9.30532 6.66004C9.56799 6.52671 9.91599 6.43337 10.5213 6.38404C11.1373 6.33471 11.9307 6.33337 13.0667 6.33337H16.2667C17.404 6.33337 18.196 6.33337 18.8133 6.38404C19.4173 6.43337 19.7653 6.52671 20.0293 6.66004C20.5933 6.94804 21.052 7.40671 21.34 7.97204C21.4733 8.23471 21.5667 8.58271 21.616 9.18804C21.6653 9.80404 21.6667 10.5974 21.6667 11.7334V12C21.6667 12.2653 21.772 12.5196 21.9595 12.7071C22.1471 12.8947 22.4014 13 22.6667 13C22.9319 13 23.1862 12.8947 23.3738 12.7071C23.5613 12.5196 23.6667 12.2653 23.6667 12V11.6907C23.6667 10.6067 23.6667 9.73204 23.6093 9.02404C23.5493 8.29604 23.4227 7.65604 23.1213 7.06404C22.6422 6.1226 21.8771 5.35711 20.936 4.87737C20.344 4.57604 19.704 4.45071 18.976 4.39071C18.268 4.33337 17.3933 4.33337 16.3093 4.33337Z" fill="#F24822"/>
<path d="M16.6267 11.2934C16.7182 11.1951 16.8286 11.1163 16.9513 11.0617C17.074 11.007 17.2064 10.9776 17.3407 10.9753C17.4749 10.9729 17.6083 10.9976 17.7328 11.0479C17.8573 11.0982 17.9704 11.173 18.0654 11.268C18.1604 11.363 18.2352 11.4761 18.2855 11.6006C18.3358 11.7251 18.3605 11.8585 18.3581 11.9927C18.3558 12.127 18.3264 12.2594 18.2717 12.3821C18.2171 12.5048 18.1383 12.6152 18.04 12.7067L15.7467 15H26.6667C26.9319 15 27.1863 15.1054 27.3738 15.2929C27.5613 15.4805 27.6667 15.7348 27.6667 16C27.6667 16.2653 27.5613 16.5196 27.3738 16.7071C27.1863 16.8947 26.9319 17 26.6667 17H15.7467L18.04 19.2934C18.1383 19.3849 18.2171 19.4953 18.2717 19.618C18.3264 19.7407 18.3558 19.8731 18.3581 20.0073C18.3605 20.1416 18.3358 20.275 18.2855 20.3995C18.2352 20.524 18.1604 20.6371 18.0654 20.7321C17.9704 20.8271 17.8573 20.9019 17.7328 20.9522C17.6083 21.0025 17.4749 21.0272 17.3407 21.0248C17.2064 21.0225 17.074 20.9931 16.9513 20.9384C16.8286 20.8838 16.7182 20.805 16.6267 20.7067L12.6267 16.7067C12.4394 16.5192 12.3342 16.265 12.3342 16C12.3342 15.735 12.4394 15.4809 12.6267 15.2934L16.6267 11.2934Z" fill="#F24822"/>
</svg>
