<svg width="48" height="48" viewBox="0 0 48 48" fill="none" xmlns="http://www.w3.org/2000/svg">
<path fill-rule="evenodd" clip-rule="evenodd" d="M37.5 21.795V10H39.5V21.795C39.5 23.665 40.147 25.513 40.951 27.42C41.514 28.756 42.001 30.385 42.001 32C42 34.349 40.946 35.905 39.555 36.832C38.219 37.722 36.633 38 35.5 38C34.133 38 33.233 37.708 32.472 37.335C32.237 37.22 31.995 37.085 31.783 36.968C31.6897 36.916 31.6033 36.8687 31.524 36.826C31.2562 36.6748 30.975 36.5486 30.684 36.449C30.41 36.357 29.817 36.293 28.988 36.28C28.2 36.268 27.318 36.302 26.544 36.347C25.697 36.396 24.945 36.697 24.024 37.067C23.744 37.1803 23.444 37.2977 23.124 37.419C22.174 37.775 20.911 38 19 38C17.017 38 16.07 37.886 15.419 37.607C15.1996 37.5086 14.9902 37.389 14.794 37.25C14.7341 37.2094 14.6731 37.1703 14.611 37.133C14.3231 37.3292 14.0067 37.4799 13.673 37.58C12.853 37.836 11.514 38 9.00001 38C8.14201 38 7.40601 37.794 6.83201 37.36C6.25601 36.923 5.94201 36.332 5.79401 35.747C5.50901 34.632 5.78001 33.406 6.06401 32.649C6.13545 32.4584 6.26334 32.2942 6.43059 32.1782C6.59784 32.0623 6.79649 32.0001 7.00001 32H10.65L11.277 31.498C12.442 30.566 13.767 29.914 15.11 29.434C16.843 28.814 19.038 27.864 21.028 26.601C22.972 25.367 24.628 23.891 25.523 22.213L26.505 11.905L28.495 12.095L27.495 22.595C27.4836 22.7175 27.4497 22.8368 27.395 22.947C26.287 25.162 24.237 26.933 22.1 28.29C19.947 29.657 17.606 30.665 15.783 31.317C14.583 31.747 13.471 32.304 12.526 33.059L11.899 33.562C11.5442 33.8457 11.1033 34.0002 10.649 34H7.75101C7.66301 34.434 7.63901 34.892 7.73101 35.253C7.79501 35.501 7.90101 35.66 8.03901 35.765C8.18101 35.873 8.45901 36 9.00001 36C11.486 36 12.564 35.83 13.077 35.67C13.303 35.6 13.409 35.533 13.489 35.478L13.521 35.454C13.607 35.388 13.839 35.212 14.053 35.106C14.29 34.9873 14.5644 34.9675 14.816 35.051C15.286 35.208 15.581 35.374 15.82 35.53L15.988 35.641C16.089 35.709 16.126 35.734 16.206 35.768C16.43 35.864 16.983 36 19 36C20.762 36 21.767 35.791 22.422 35.546C22.637 35.466 22.865 35.373 23.104 35.276C24.07 34.886 25.221 34.42 26.428 34.35C27.2906 34.2964 28.1548 34.2731 29.019 34.28C29.835 34.293 30.715 34.35 31.316 34.551C31.769 34.702 32.144 34.888 32.473 35.065L32.815 35.253C33 35.356 33.162 35.446 33.353 35.54C33.867 35.792 34.467 36 35.5 36C36.367 36 37.53 35.778 38.445 35.168C39.305 34.595 40 33.65 40 32C40 30.756 39.617 29.406 39.108 28.197C38.293 26.263 37.5 24.095 37.5 21.795Z" fill="black"/>
<path fill-rule="evenodd" clip-rule="evenodd" d="M34 23C34.2652 23 34.5196 23.1054 34.7071 23.2929C34.8947 23.4804 35 23.7348 35 24V24.022L34.999 24.062C34.999 24.0933 34.997 24.1357 34.993 24.189C34.9503 24.8062 34.8304 25.4156 34.636 26.003C34.276 27.087 33.532 28.447 32.014 29.358C31.7865 29.4945 31.514 29.5349 31.2566 29.4705C30.9992 29.4061 30.778 29.2421 30.6415 29.0145C30.5051 28.7869 30.4646 28.5145 30.529 28.2571C30.5934 27.9997 30.7575 27.7785 30.985 27.642C31.968 27.053 32.475 26.163 32.739 25.372C32.8778 24.9519 32.9645 24.5163 32.997 24.075L33 24.007V23.995C33.0013 23.7307 33.1073 23.4776 33.2947 23.2911C33.4821 23.1047 33.7357 23 34 23Z" fill="black"/>
</svg>
